<svg xmlns="http://www.w3.org/2000/svg"
shape-rendering="geometricPrecision"
width="4000" height="4000" viewBox="0 0 1024 1024">
  <metadata>null</metadata>

<path d="
M 359.488 357.967
C 358.568 358.991 359.292 359.992 360.133 360.84
C 362.14 362.866 364.363 364.662 366.349 366.724
C 374.978 375.683 383.827 384.457 392.645 393.229
C 416.346 416.809 440.014 440.422 463.687 464.032
C 477.368 477.676 491.461 491.152 504.527 505.286
C 497.886 505.62 491.155 505.298 484.502 505.284
C 472.169 505.257 459.835 505.269 447.501 505.266
C 440.501 505.264 433.501 505.272 426.501 505.269
C 423.23 505.268 419.514 505.785 416.299 505.16
C 413.33 503.163 410.781 499.688 408.248 497.144
C 402.624 491.496 396.982 485.866 391.349 480.228
C 384.066 472.938 376.823 465.606 369.45 458.406
C 365.736 454.78 360.913 451.252 357.859 447.064
C 357.27 444.652 357.75 441.499 357.753 439.001
C 357.759 433.502 357.77 428.002 357.767 422.502
C 357.76 408.335 357.769 394.168 357.767 380.002
C 357.766 372.738 358.299 365.204 357.654 357.973
C 357.957 357.75 359.056 357.959 359.488 357.967 Z"
opacity="1" fill="rgb(124,46,211)" fill-rule="evenodd" />
<path d="
M 505.206 520.503
C 504.378 518.776 501.22 522.668 500.584 523.285
C 496.045 527.685 491.673 532.286 487.272 536.822
C 476.119 548.312 464.545 559.401 453.219 570.719
C 431.195 592.728 409.103 614.672 387.101 636.704
C 380.776 643.038 374.481 649.408 368.087 655.672
C 364.91 658.785 360.782 661.718 359.001 665.82
C 358.657 665.812 358.298 665.945 357.969 665.846
C 357.588 665.73 357.798 664.754 357.802 664.477
C 357.821 663.317 357.83 662.162 357.83 661.002
C 357.83 655.669 357.811 650.336 357.817 645.003
C 357.834 629.836 357.804 614.669 357.772 599.502
C 357.762 594.57 357.759 589.638 357.726 584.707
C 357.709 582.217 357.421 579.489 357.794 577.028
C 361.714 572.265 366.768 568.19 371.099 563.788
C 380.072 554.669 389.123 545.599 398.25 536.634
C 402.393 532.565 406.503 528.445 410.571 524.3
C 412.168 522.673 414.07 519.83 416.101 518.835
C 420.849 518.454 425.731 518.759 430.495 518.754
C 439.496 518.743 448.496 518.733 457.496 518.735
C 468.329 518.738 479.163 518.705 489.996 518.729
C 495.058 518.74 500.207 518.469 505.258 518.769
C 505.208 519.344 505.216 519.926 505.206 520.503 Z"
opacity="1" fill="rgb(175,120,244)" fill-rule="evenodd" />
<path d="
M 359.488 357.967
C 367.409 358.624 375.553 358.097 383.502 358.099
C 404.511 358.104 425.667 357.342 446.66 358.113
C 448.874 359.31 450.793 362.119 452.586 363.908
C 456.802 368.113 461.032 372.304 465.246 376.511
C 474.187 385.439 483.11 394.384 492.034 403.329
C 496.341 407.645 501.197 411.801 505.079 416.496
C 505.514 423.449 505.094 430.543 505.126 437.514
C 505.199 453.179 505.177 468.845 505.215 484.51
C 505.228 489.843 505.195 495.178 505.246 500.51
C 505.256 501.628 505.753 504.327 505.33 505.282
C 505.222 505.527 504.794 505.285 504.527 505.286
C 491.461 491.152 477.368 477.676 463.687 464.032
C 440.014 440.422 416.346 416.809 392.645 393.229
C 383.827 384.457 374.978 375.683 366.349 366.724
C 364.363 364.662 362.14 362.866 360.133 360.84
C 359.292 359.992 358.568 358.991 359.488 357.967 Z"
opacity="1" fill="rgb(174,119,244)" fill-rule="evenodd" />
<path d="
M 505.206 520.503
C 505.739 540.796 505.142 561.208 505.132 581.513
C 505.129 587.511 505.122 593.509 505.094 599.507
C 505.083 601.912 505.751 605.394 504.92 607.639
C 501.388 611.644 497.187 615.228 493.401 619.004
C 485.554 626.829 477.73 634.676 469.895 642.513
C 464.603 647.807 459.331 653.123 454.021 658.4
C 451.667 660.739 449.394 663.664 446.758 665.661
C 444.25 666.122 441.417 665.768 438.873 665.762
C 433.749 665.749 428.625 665.761 423.501 665.766
C 409 665.78 394.5 665.776 379.999 665.79
C 373.078 665.797 365.892 665.215 359.001 665.82
C 360.782 661.718 364.91 658.785 368.087 655.672
C 374.481 649.408 380.776 643.038 387.101 636.704
C 409.103 614.672 431.195 592.728 453.219 570.719
C 464.545 559.401 476.119 548.312 487.272 536.822
C 491.673 532.286 496.045 527.685 500.584 523.285
C 501.22 522.668 504.378 518.776 505.206 520.503 Z"
opacity="1" fill="rgb(124,47,211)" fill-rule="evenodd" />
<path d="
M 666.2 358.209
C 665.743 359.334 664.08 359.64 663.239 360.499
C 660.32 363.483 657.39 366.452 654.459 369.423
C 644.66 379.356 634.666 389.114 624.751 398.937
C 590.296 433.072 556.286 467.667 521.73 501.687
C 520.515 502.786 520.348 503.756 519.573 505.057
C 519.571 505.062 518.912 504.593 518.824 504.54
C 518.39 485.549 518.773 466.5 518.741 447.497
C 518.729 440.664 518.724 433.831 518.709 426.998
C 518.702 423.593 518.261 419.888 518.745 416.519
C 520.508 414.014 523.295 411.917 525.477 409.764
C 529.737 405.558 533.955 401.31 538.214 397.104
C 551.209 384.275 563.659 370.765 576.981 358.283
C 578.942 357.553 581.904 358.177 584 358.168
C 589.5 358.147 595.001 358.161 600.501 358.165
C 615.502 358.176 630.502 358.132 645.502 358.118
C 651.052 358.112 656.61 358.221 662.155 357.994
C 663.51 357.939 664.883 358.414 666.2 358.209 Z"
opacity="1" fill="rgb(80,43,156)" fill-rule="evenodd" />
<path d="
M 518.824 504.54
C 518.912 504.593 519.571 505.062 519.573 505.057
C 520.348 503.756 520.515 502.786 521.73 501.687
C 556.286 467.667 590.296 433.072 624.751 398.937
C 634.666 389.114 644.66 379.356 654.459 369.423
C 657.39 366.452 660.32 363.483 663.239 360.499
C 664.08 359.64 665.743 359.334 666.2 358.209
C 665.477 378.747 666.187 399.454 666.198 420.011
C 666.2 425.948 666.223 431.885 666.228 437.822
C 666.231 440.647 666.674 443.909 666.153 446.685
C 655.951 457.584 644.923 467.871 634.343 478.411
C 625.456 487.264 616.898 496.649 607.693 505.157
C 605.551 505.53 603.131 505.233 600.958 505.235
C 596.807 505.241 592.656 505.236 588.504 505.233
C 575.505 505.223 562.505 505.242 549.505 505.277
C 541.671 505.298 533.837 505.352 526.002 505.332
C 524.11 505.327 522.227 505.305 520.342 505.482
C 520.181 505.497 518.81 505.723 518.716 505.59
C 518.514 505.302 518.79 504.89 518.824 504.54 Z"
opacity="1" fill="rgb(174,119,243)" fill-rule="evenodd" />
<path d="
M 519.968 518.808
C 520.335 520.263 521.474 521.262 522.477 522.331
C 524.514 524.503 526.63 526.618 528.714 528.746
C 536.624 536.823 544.513 544.996 552.785 552.701
C 562.099 561.377 570.876 570.727 579.879 579.726
C 597.216 597.053 614.526 614.407 631.878 631.718
C 640.569 640.388 649.194 649.134 657.981 657.705
C 660.097 659.768 662.273 661.828 664.201 664.069
C 664.455 664.364 665.856 665.698 665.532 666.04
C 644.733 665.369 623.822 665.858 603.002 665.863
C 597.001 665.865 591.001 665.86 585.001 665.856
C 582.823 665.855 579.231 666.592 577.236 665.744
C 573.186 662.56 569.722 658.102 566.054 654.464
C 557.862 646.34 549.678 638.207 541.481 630.089
C 536.452 625.109 531.462 620.089 526.46 615.081
C 524.099 612.718 520.884 610.407 519.042 607.632
C 518.572 605.023 518.818 602.147 518.806 599.502
C 518.783 594.501 518.772 589.5 518.773 584.499
C 518.775 569.499 518.767 554.499 518.745 539.5
C 518.738 534.334 518.655 529.168 518.645 524.003
C 518.642 522.642 518.721 521.282 518.712 519.922
C 518.71 519.567 518.394 519.05 518.692 518.856
C 519.049 518.624 519.547 518.874 519.968 518.808 Z"
opacity="1" fill="rgb(174,119,243)" fill-rule="evenodd" />
<path d="
M 519.968 518.808
C 524.931 518.44 530.022 518.726 535 518.732
C 544.333 518.744 553.666 518.752 562.999 518.752
C 572.665 518.752 582.332 518.765 591.999 518.758
C 597.155 518.754 602.415 518.468 607.559 518.835
C 609.301 519.507 610.81 521.935 612.123 523.258
C 615.813 526.975 619.566 530.627 623.254 534.345
C 633.031 544.201 642.882 553.982 652.698 563.798
C 655.513 566.612 658.257 569.498 661.107 572.276
C 662.651 573.782 664.981 575.378 666.032 577.264
C 666.408 579.24 666.076 581.488 666.074 583.501
C 666.07 587.668 666.071 591.835 666.071 596.002
C 666.071 609.169 666.078 622.336 666.081 635.503
C 666.083 643.338 666.041 651.178 666.154 659.012
C 666.178 660.677 666.232 662.343 666.229 664.008
C 666.228 664.422 666.413 665.727 666.236 666.041
C 666.121 666.246 665.767 666.054 665.532 666.04
C 665.856 665.698 664.455 664.364 664.201 664.069
C 662.273 661.828 660.097 659.768 657.981 657.705
C 649.194 649.134 640.569 640.388 631.878 631.718
C 614.526 614.407 597.216 597.053 579.879 579.726
C 570.876 570.727 562.099 561.377 552.785 552.701
C 544.513 544.996 536.624 536.823 528.714 528.746
C 526.63 526.618 524.514 524.503 522.477 522.331
C 521.474 521.262 520.335 520.263 519.968 518.808 Z"
opacity="1" fill="rgb(81,43,156)" fill-rule="evenodd" />

</svg>