<svg xmlns="http://www.w3.org/2000/svg"
shape-rendering="geometricPrecision"
width="4000" height="4000" viewBox="0 0 604 604">
  <metadata>null</metadata>

<path d="
M 57.846 223.004
C 57.011 227.157 57.738 232.247 57.741 236.499
C 57.748 244.974 57.49 253.499 57.767 261.962
C 57.161 270.879 57.758 280.057 57.767 289
C 57.769 291.166 57.82 293.335 57.776 295.5
C 57.763 296.11 57.539 297.354 57.978 297.772
C 51.791 298.334 45.229 297.748 39.001 297.751
C 35.423 297.752 31.13 298.423 27.634 297.735
C 28.331 272.72 27.154 247.633 27.656 222.607
C 28.82 221.759 32.534 222.384 34.001 222.375
C 39.651 222.343 45.302 222.358 50.953 222.383
C 52.708 222.391 54.466 222.416 56.221 222.443
C 56.891 222.453 57.626 222.278 57.846 223.004 Z"
opacity="1" fill="rgb(172,117,246)" fill-rule="evenodd" />
<path d="
M 57.851 305.851
C 57.128 308.935 57.761 312.82 57.761 315.999
C 57.759 324.287 58.304 332.783 57.75 341.048
C 57.027 350.903 57.736 361.109 57.746 370.998
C 57.748 373.5 57.758 376.003 57.731 378.505
C 57.723 379.292 57.458 380.734 57.973 381.346
C 54.381 381.938 50.163 381.37 46.503 381.376
C 40.256 381.386 33.857 381.775 27.627 381.379
C 27.274 366.436 27.568 351.453 27.579 336.503
C 27.586 326.31 27.063 315.916 27.709 305.745
C 35.267 305.333 42.932 305.618 50.502 305.631
C 52.336 305.634 54.17 305.636 56.004 305.625
C 56.577 305.622 57.48 305.393 57.851 305.851 Z"
opacity="1" fill="rgb(172,117,245)" fill-rule="evenodd" />
<path d="
M 57.846 223.004
C 58.606 221.887 62.276 222.149 63.528 222.328
C 64.93 222.96 66.111 224.733 67.159 225.844
C 69.693 228.533 72.219 231.225 74.812 233.858
C 78.603 237.707 82.516 241.443 86.366 245.233
C 88.208 247.045 90.834 248.973 92.127 251.23
C 92.702 252.234 92.339 253.891 92.316 254.999
C 92.257 257.833 92.263 260.668 92.269 263.503
C 92.29 274.462 92.865 285.596 92.265 296.535
C 91.331 296.243 90.672 295.008 89.964 294.372
C 88.156 292.751 86.534 290.981 84.83 289.247
C 78.722 283.03 72.683 276.734 66.681 270.414
C 64.637 268.262 62.627 266.065 60.548 263.948
C 59.699 263.084 59.074 262 57.767 261.962
C 57.49 253.499 57.748 244.974 57.741 236.499
C 57.738 232.247 57.011 227.157 57.846 223.004 Z"
opacity="1" fill="rgb(121,45,213)" fill-rule="evenodd" />
<path d="
M 57.767 261.962
C 59.074 262 59.699 263.084 60.548 263.948
C 62.627 266.065 64.637 268.262 66.681 270.414
C 72.683 276.734 78.722 283.03 84.83 289.247
C 86.534 290.981 88.156 292.751 89.964 294.372
C 90.672 295.008 91.331 296.243 92.265 296.535
C 92.288 296.683 92.544 297.536 92.335 297.631
C 91.72 297.909 90.666 297.722 89.996 297.737
C 88.165 297.778 86.332 297.778 84.5 297.786
C 75.711 297.824 66.75 298.367 57.978 297.772
C 57.539 297.354 57.763 296.11 57.776 295.5
C 57.82 293.335 57.769 291.166 57.767 289
C 57.758 280.057 57.161 270.879 57.767 261.962 Z"
opacity="1" fill="rgb(83,42,161)" fill-rule="evenodd" />
<path d="
M 57.851 305.851
C 60.076 304.824 63.629 305.412 66.043 305.418
C 72.196 305.432 78.348 305.382 84.5 305.402
C 86.452 305.409 88.432 305.259 90.379 305.403
C 90.877 305.44 92.114 305.419 92.341 306.012
C 92.454 306.306 92.232 307.057 92.231 307.387
C 91.501 307.47 90.511 308.802 89.941 309.284
C 87.517 311.332 85.22 313.644 82.934 315.847
C 74.383 324.087 66.167 332.708 57.75 341.048
C 58.304 332.783 57.759 324.287 57.761 315.999
C 57.761 312.82 57.128 308.935 57.851 305.851 Z"
opacity="1" fill="rgb(82,42,159)" fill-rule="evenodd" />
<path d="
M 57.75 341.048
C 66.167 332.708 74.383 324.087 82.934 315.847
C 85.22 313.644 87.517 311.332 89.941 309.284
C 90.511 308.802 91.501 307.47 92.231 307.387
C 92.097 317.75 92.256 328.136 92.249 338.505
C 92.245 342.894 92.994 347.985 92.264 352.294
C 90.665 354.303 88.638 356.009 86.844 357.843
C 82.413 362.374 77.953 366.875 73.493 371.377
C 71.418 373.472 69.228 375.49 67.243 377.669
C 66.216 378.796 65.242 380.464 63.959 381.286
C 62.067 381.705 59.899 381.38 57.973 381.346
C 57.458 380.734 57.723 379.292 57.731 378.505
C 57.758 376.003 57.748 373.5 57.746 370.998
C 57.736 361.109 57.027 350.903 57.75 341.048 Z"
opacity="1" fill="rgb(122,46,213)" fill-rule="evenodd" />
<path d="
M 171.563 224.498
C 171.325 223.913 171.018 223.812 170.389 223.791
C 168.096 225.719 166.149 228.448 164.064 230.635
C 159.873 235.033 155.51 239.282 151.248 243.611
C 134.759 260.361 118.789 277.678 102.065 294.188
C 101.519 294.679 100.766 295.257 100.429 295.926
C 100.056 296.668 100.905 296.992 100.832 297.492
C 100.82 297.572 100.099 297.742 99.991 297.818
C 99.711 297.77 99.402 297.914 99.137 297.811
C 98.936 297.733 99.179 296.554 99.187 296.493
C 99.344 295.162 99.243 293.828 99.236 292.493
C 99.211 286.995 99.257 281.497 99.261 275.999
C 99.265 270.665 99.242 265.331 99.246 259.997
C 99.248 257.661 98.802 254.828 99.33 252.554
C 99.582 251.467 100.682 250.596 101.436 249.826
C 103.019 248.207 104.609 246.593 106.209 244.99
C 111.495 239.697 116.852 234.475 122.125 229.169
C 124.029 227.253 126.424 223.737 128.851 222.597
C 131.676 222.241 134.649 222.667 137.5 222.54
C 144.974 222.207 152.521 222.435 160.006 222.456
C 163.563 222.466 168.316 223.502 171.706 222.427
C 171.987 222.747 171.591 224.056 171.563 224.498 Z"
opacity="1" fill="rgb(170,115,244)" fill-rule="evenodd" />
<path d="
M 171.684 380.992
C 171.58 381.269 169.854 379.639 169.599 379.376
C 167.665 377.377 165.738 375.375 163.823 373.356
C 158.882 368.145 153.811 363.053 148.822 357.886
C 138.075 346.755 127.095 335.85 116.502 324.572
C 112.773 320.602 108.916 316.801 105.061 312.954
C 103.225 311.123 101.578 308.714 99.281 307.481
C 99.069 306.897 98.944 306.275 98.965 305.651
C 108.726 305.019 118.714 305.542 128.499 305.546
C 131.332 305.548 134.165 305.573 136.999 305.594
C 138.215 305.603 139.909 305.343 141.036 305.853
C 142.341 306.444 143.466 308.031 144.456 309.028
C 146.528 311.116 148.581 313.222 150.623 315.339
C 155.461 320.356 160.357 325.318 165.183 330.347
C 167.221 332.471 170.201 334.704 171.762 337.168
C 172.63 351.705 171.394 366.433 171.684 380.992 Z"
opacity="1" fill="rgb(122,46,213)" fill-rule="evenodd" />
<path d="
M 99.281 307.481
C 101.578 308.714 103.225 311.123 105.061 312.954
C 108.916 316.801 112.773 320.602 116.502 324.572
C 127.095 335.85 138.075 346.755 148.822 357.886
C 153.811 363.053 158.882 368.145 163.823 373.356
C 165.738 375.375 167.665 377.377 169.599 379.376
C 169.854 379.639 171.58 381.269 171.684 380.992
C 171.697 381.631 170.036 381.314 169.49 381.323
C 166.833 381.369 164.161 381.338 161.502 381.323
C 154.168 381.282 146.835 381.304 139.501 381.331
C 135.936 381.344 132.163 381.746 128.621 381.378
C 126.087 379.766 124.007 376.751 121.873 374.628
C 117.241 370.018 112.612 365.407 108.017 360.759
C 105.954 358.672 103.865 356.599 101.882 354.436
C 101.049 353.527 99.908 352.656 99.365 351.547
C 98.871 343.245 99.259 334.817 99.243 326.499
C 99.231 320.239 98.682 313.709 99.281 307.481 Z"
opacity="1" fill="rgb(171,116,245)" fill-rule="evenodd" />
<path d="
M 171.563 224.498
C 171.749 234.663 171.733 244.84 171.696 255.008
C 171.685 257.84 171.662 260.672 171.635 263.505
C 171.625 264.6 171.929 266.101 171.427 267.099
C 165.798 273.529 159.43 279.346 153.483 285.476
C 150.877 288.164 148.164 290.734 145.519 293.383
C 144.125 294.78 142.767 296.469 141.164 297.618
C 139.971 298.041 138.452 297.842 137.203 297.844
C 134.599 297.846 131.995 297.789 129.392 297.763
C 123.095 297.702 116.797 297.743 110.5 297.749
C 107.063 297.752 103.401 297.432 99.991 297.818
C 100.099 297.742 100.82 297.572 100.832 297.492
C 100.905 296.992 100.056 296.668 100.429 295.926
C 100.766 295.257 101.519 294.679 102.065 294.188
C 118.789 277.678 134.759 260.361 151.248 243.611
C 155.51 239.282 159.873 235.033 164.064 230.635
C 166.149 228.448 168.096 225.719 170.389 223.791
C 171.018 223.812 171.325 223.913 171.563 224.498 Z"
opacity="1" fill="rgb(122,47,213)" fill-rule="evenodd" />
<path d="
M 202.48 253.969
C 207.719 253.543 213.56 253.56 218.798 254.033
C 219.214 256.753 218.903 259.75 218.864 262.501
C 218.797 267.17 218.81 271.838 218.83 276.507
C 218.862 284.005 218.955 291.503 218.959 299.001
C 218.961 302.447 219.238 306.041 218.946 309.468
C 221.202 308.202 223.345 304.873 225.108 302.948
C 229.273 298.401 233.731 294.088 237.685 289.35
C 239.743 286.884 242.299 282.941 245.045 281.304
C 249.633 280.914 254.406 281.267 259.008 281.34
C 261.419 281.379 264.049 281.005 266.429 281.316
C 266.046 282.232 264.971 282.788 264.289 283.51
C 262.652 285.243 261.035 286.993 259.431 288.758
C 253.918 294.825 248.511 301.007 242.87 306.954
C 241.153 308.763 239.528 310.655 237.762 312.418
C 236.986 313.192 235.82 314.026 235.474 315.077
C 242.921 322.892 250.32 330.758 257.668 338.673
C 259.965 341.146 262.285 343.603 264.551 346.106
C 265.878 347.571 267.232 349.461 268.797 350.654
C 268.874 350.881 268.32 350.703 268.081 350.708
C 267.383 350.725 266.684 350.693 265.987 350.689
C 264.162 350.678 262.333 350.732 260.508 350.731
C 257.034 350.728 253.558 350.77 250.085 350.695
C 249.004 350.672 247.238 351.001 246.291 350.375
C 244.139 348.952 242.369 346.179 240.622 344.286
C 236.204 339.5 232.078 334.453 227.677 329.65
C 225.548 327.326 223.445 324.975 221.361 322.613
C 220.786 321.961 219.48 319.913 219.074 320.543
C 219.492 330.547 218.839 340.603 219.225 350.611
C 213.809 351.697 207.699 350.392 202.196 350.611
C 203.025 341.738 202.223 332.421 202.232 323.502
C 202.255 300.41 201.568 277.23 202.14 254.149
C 202.253 254.089 202.366 254.029 202.48 253.969 Z"
opacity="1" fill="rgb(254,252,254)" fill-rule="evenodd" />
<path d="
M 278.349 281.886
C 279.375 281.096 281.484 281.382 282.757 281.372
C 286.765 281.34 290.796 281.285 294.798 281.506
C 295.398 284.98 294.886 288.971 294.872 292.5
C 294.844 299.656 294.794 306.812 294.78 313.968
C 294.771 318.999 294.219 324.571 296.597 329.194
C 302.413 340.506 320.143 337.609 325.72 327.756
C 328.475 322.89 327.923 316.906 327.909 311.516
C 327.883 301.534 327.725 291.553 327.727 281.571
C 328.96 280.962 331.108 281.424 332.467 281.405
C 336.45 281.351 340.451 281.25 344.431 281.442
C 345.114 283.286 344.526 286.161 344.458 288.134
C 344.322 292.081 344.409 296.048 344.411 299.998
C 344.419 311.664 344.39 323.33 344.439 334.996
C 344.454 338.529 344.389 342.066 344.443 345.598
C 344.466 347.16 344.9 349.198 344.421 350.694
C 338.831 350.826 333.155 350.367 327.584 350.675
C 327.685 348.358 328.039 345.475 327.544 343.208
C 323.333 348.755 316.006 351.543 309.254 351.901
C 297.938 352.501 287.026 348.446 281.596 337.94
C 277.702 330.404 278.168 322.099 278.198 313.862
C 278.237 303.206 278.091 292.538 278.349 281.886 Z"
opacity="1" fill="rgb(254,253,255)" fill-rule="evenodd" />
<path d="
M 363.398 282.057
C 363.464 281.848 363.531 281.639 363.597 281.43
C 368.955 281.008 374.425 281.358 379.8 281.304
C 380.048 284.013 379.768 286.77 379.927 289.481
C 380.852 289.096 381.579 287.995 382.297 287.308
C 383.374 286.277 384.559 285.387 385.798 284.561
C 390.166 281.649 395.43 280.401 400.627 280.283
C 402.054 280.25 405.572 279.725 406.76 280.525
C 407.024 284.668 406.986 288.864 407.07 293.021
C 407.08 293.504 407.264 296.789 407.036 296.824
C 402.338 296.989 397.712 296.163 393.083 297.506
C 387.313 299.181 382.299 304.042 380.619 309.869
C 379.591 313.432 379.801 317.339 379.798 321.008
C 379.793 326.673 379.846 332.337 379.911 338.002
C 379.947 341.136 379.878 344.275 379.97 347.407
C 379.993 348.197 380.403 349.988 379.9 350.625
C 374.511 350.829 368.873 350.067 363.536 350.622
C 362.824 327.792 363.86 304.897 363.398 282.057 Z"
opacity="1" fill="rgb(254,253,255)" fill-rule="evenodd" />
<path d="
M 415.94 310.602
C 417.118 305.797 417.774 301.315 420.3 296.929
C 427.848 283.822 443.421 276.515 458.332 280.702
C 462.415 281.848 466.111 283.818 469.467 286.395
C 470.594 287.261 471.614 289.219 472.775 289.831
C 472.903 287.157 472.576 284.402 472.648 281.705
C 473.659 280.954 475.782 281.374 477.002 281.381
C 480.866 281.403 485.63 280.623 489.39 281.468
C 488.986 286.745 489.32 292.205 489.301 297.505
C 489.259 308.838 489.3 320.173 489.306 331.506
C 489.308 336.006 489.315 340.506 489.314 345.007
C 489.313 346.473 489.916 349.357 489.331 350.661
C 483.913 351.361 477.999 350.67 472.561 350.441
C 472.534 348.537 472.475 346.607 472.395 344.699
C 472.376 344.257 472.519 342.91 472.173 342.666
C 460.102 355.39 438.429 354.811 426.11 342.759
C 417.881 334.709 414.218 321.883 415.94 310.602 Z
M 431.963 313.099
C 431.135 320.189 433.318 328.031 439.177 332.48
C 451.042 341.491 470.67 335.59 472.652 319.932
C 473.334 314.551 472.48 308.707 469.247 304.226
C 462.052 294.255 445.701 292.313 437.12 301.528
C 434.224 304.637 432.453 308.901 431.963 313.099 Z"
opacity="1" fill="rgb(254,252,255)" fill-rule="evenodd" />
<path d="
M 500.2 350.746
C 502.194 347.213 505.182 343.905 507.726 340.745
C 511.981 335.458 516.263 330.145 520.388 324.755
C 522.083 322.539 523.834 320.354 525.569 318.167
C 526.147 317.438 527.394 316.381 527.637 315.496
C 527.637 314.529 526.563 313.611 525.991 312.891
C 524.29 310.751 522.55 308.623 520.917 306.431
C 516.667 300.724 512.261 295.083 507.773 289.563
C 505.586 286.873 503.075 284.256 501.135 281.401
C 502.737 280.829 505.263 281.368 507.001 281.356
C 511.739 281.325 517.293 280.584 521.935 281.489
C 524.365 284.357 526.253 287.766 528.386 290.862
C 531.609 295.541 534.917 300.183 538.221 304.799
C 538.541 304.755 538.975 303.751 539.132 303.515
C 540.113 302.036 541.068 300.536 542.079 299.076
C 544.766 295.199 547.537 291.383 550.251 287.524
C 551.648 285.536 552.805 283.138 554.605 281.488
C 559.393 280.481 565.114 281.276 570.003 281.279
C 571.37 281.28 574.733 281.825 575.864 280.998
C 575.535 281.966 574.535 282.744 573.889 283.526
C 572.396 285.334 570.897 287.144 569.422 288.966
C 564.351 295.23 559.356 301.572 554.419 307.943
C 552.656 310.218 549.081 313.242 548.482 316.071
C 556.032 324.738 562.884 334.06 570.415 342.766
C 572.161 344.784 573.854 346.856 575.549 348.916
C 575.71 349.111 577.042 350.609 576.956 350.689
C 569.908 351.087 562.261 351.211 555.243 350.454
C 550.469 345.17 546.776 338.579 542.5 332.871
C 541.403 331.407 540.381 329.902 539.353 328.391
C 539.062 327.964 538.497 326.935 538.055 326.813
C 534.968 331.722 531.026 336.337 527.614 341.052
C 525.469 344.015 523.473 347.832 520.863 350.374
C 519.053 351.132 516.287 350.737 514.352 350.728
C 509.666 350.704 504.871 350.403 500.2 350.746 Z"
opacity="1" fill="rgb(254,253,254)" fill-rule="evenodd" />

</svg>